<?xml version="1.0" encoding="utf-8"?>
<!-- Generator: Adobe Illustrator 24.3.0, SVG Export Plug-In . SVG Version: 6.00 Build 0)  -->
<svg version="1.1" id="Vrstva_1" xmlns="http://www.w3.org/2000/svg" xmlns:xlink="http://www.w3.org/1999/xlink" x="0px" y="0px"
	 viewBox="0 0 529.263 140.651" enable-background="new 0 0 529.263 140.651" xml:space="preserve">
<g>
	<g>
		<path fill="#FFFFFF" d="M110.961,17.97h35.953c6.589,0,13.225,0.859,19.91,2.578c6.683,1.719,12.699,4.562,18.048,8.523
			c5.347,3.964,9.691,9.167,13.035,15.613c3.341,6.446,5.013,14.445,5.013,23.992c0,8.881-1.672,16.522-5.013,22.919
			c-3.344,6.398-7.688,11.651-13.035,15.756c-5.349,4.107-11.365,7.14-18.048,9.096c-6.685,1.958-13.321,2.937-19.91,2.937h-35.953
			V17.97z M144.05,103.627c4.677,0,9.357-0.548,14.037-1.646c4.678-1.097,8.903-2.959,12.677-5.587
			c3.771-2.625,6.851-6.182,9.239-10.671c2.386-4.487,3.581-10.17,3.581-17.046c0-7.256-1.195-13.178-3.581-17.761
			c-2.388-4.584-5.468-8.165-9.239-10.743c-3.773-2.578-7.999-4.344-12.677-5.3c-4.68-0.954-9.36-1.433-14.037-1.433h-15.041v70.187
			H144.05z"/>
		<path fill="#FFFFFF" d="M208.363,84.72c0-5.443,0.978-10.385,2.936-14.825c1.956-4.44,4.606-8.236,7.95-11.388
			c3.341-3.151,7.305-5.586,11.889-7.305s9.454-2.578,14.61-2.578s10.027,0.859,14.61,2.578c4.584,1.719,8.545,4.154,11.889,7.305
			c3.341,3.151,5.991,6.947,7.95,11.388c1.956,4.44,2.937,9.382,2.937,14.825s-0.98,10.409-2.937,14.897
			c-1.958,4.489-4.608,8.332-7.95,11.53c-3.344,3.2-7.305,5.707-11.889,7.521c-4.583,1.812-9.454,2.721-14.61,2.721
			s-10.027-0.908-14.61-2.721c-4.583-1.813-8.547-4.32-11.889-7.521c-3.344-3.198-5.994-7.041-7.95-11.53
			C209.341,95.129,208.363,90.163,208.363,84.72z M225.838,84.72c0,2.675,0.405,5.35,1.217,8.021
			c0.811,2.675,2.028,5.062,3.653,7.162c1.623,2.102,3.675,3.82,6.159,5.156c2.482,1.339,5.443,2.006,8.881,2.006
			c3.438,0,6.396-0.667,8.881-2.006c2.482-1.336,4.535-3.055,6.159-5.156c1.623-2.1,2.84-4.487,3.653-7.162
			c0.81-2.672,1.217-5.347,1.217-8.021c0-2.672-0.407-5.322-1.217-7.949c-0.812-2.626-2.03-4.989-3.653-7.091
			c-1.625-2.1-3.677-3.796-6.159-5.085c-2.484-1.289-5.443-1.934-8.881-1.934c-3.438,0-6.399,0.645-8.881,1.934
			c-2.484,1.289-4.537,2.985-6.159,5.085c-1.625,2.102-2.842,4.465-3.653,7.091C226.243,79.398,225.838,82.048,225.838,84.72z"/>
		<path fill="#FFFFFF" d="M292.872,11.095h17.189v108.289h-17.189V11.095z"/>
		<path fill="#FFFFFF" d="M324.097,11.095h17.188v108.289h-17.188V11.095z"/>
		<path fill="#FFFFFF" d="M397.721,110.647h-0.43c-1.72,3.057-4.49,5.563-8.309,7.52c-3.82,1.956-8.164,2.937-13.034,2.937
			c-2.771,0-5.658-0.358-8.666-1.074c-3.009-0.716-5.779-1.909-8.309-3.581c-2.531-1.67-4.633-3.867-6.302-6.589
			c-1.672-2.722-2.507-6.088-2.507-10.099c0-5.156,1.454-9.261,4.368-12.318c2.912-3.055,6.661-5.394,11.245-7.019
			c4.583-1.623,9.668-2.697,15.255-3.223c5.586-0.524,11.052-0.788,16.4-0.788v-1.719c0-4.298-1.553-7.471-4.655-9.525
			c-3.104-2.053-6.804-3.08-11.101-3.08c-3.631,0-7.115,0.766-10.457,2.292c-3.344,1.528-6.112,3.391-8.308,5.586l-8.881-10.456
			c3.914-3.628,8.427-6.35,13.536-8.165c5.107-1.813,10.289-2.722,15.542-2.722c6.109,0,11.147,0.859,15.111,2.578
			c3.962,1.719,7.09,3.964,9.382,6.732c2.292,2.771,3.891,5.873,4.799,9.31c0.906,3.438,1.36,6.876,1.36,10.313v41.826h-16.042
			V110.647z M397.434,88.015h-3.867c-2.771,0-5.683,0.12-8.737,0.357c-3.058,0.24-5.873,0.766-8.451,1.576
			c-2.579,0.812-4.728,1.958-6.446,3.438c-1.719,1.481-2.578,3.51-2.578,6.088c0,1.625,0.358,2.985,1.074,4.082
			c0.716,1.099,1.647,1.983,2.793,2.65c1.146,0.669,2.436,1.146,3.868,1.432c1.432,0.287,2.864,0.43,4.297,0.43
			c5.92,0,10.407-1.575,13.465-4.727c3.055-3.151,4.583-7.448,4.583-12.892V88.015z"/>
		<path fill="#FFFFFF" d="M426.654,50.629h16.473v11.459h0.286c1.909-4.011,4.584-7.256,8.021-9.74
			c3.438-2.482,7.448-3.724,12.032-3.724c0.667,0,1.383,0.024,2.148,0.072c0.764,0.049,1.433,0.167,2.005,0.358V64.81
			c-1.146-0.287-2.126-0.477-2.936-0.573c-0.812-0.094-1.601-0.143-2.364-0.143c-3.916,0-7.067,0.716-9.453,2.149
			c-2.389,1.432-4.25,3.151-5.587,5.156c-1.338,2.006-2.244,4.06-2.722,6.159c-0.479,2.102-0.716,3.773-0.716,5.014v36.812h-17.188
			V50.629z"/>
	</g>
	<g>
		<path fill="#FFC215" d="M475.727,114.953c0,1.26-0.448,2.373-1.344,3.341c-0.896,0.97-1.997,1.453-3.305,1.453
			c-1.26,0-2.337-0.399-3.231-1.198c-0.896-0.799-1.344-1.9-1.344-3.305s0.483-2.554,1.452-3.45
			c0.968-0.896,2.081-1.344,3.341-1.344c1.259,0,2.312,0.399,3.159,1.198C475.303,112.448,475.727,113.55,475.727,114.953z"/>
		<path fill="#FFC215" d="M508.047,69.924c-0.484-0.146-0.98-0.266-1.488-0.363c-0.509-0.097-1.078-0.146-1.707-0.146
			c-1.162,0-2.155,0.23-2.978,0.69c-0.824,0.461-1.515,1.078-2.07,1.852c-0.558,0.775-0.993,1.659-1.308,2.651
			c-0.315,0.993-0.569,2.022-0.763,3.087l-1.307,7.263h8.207l-1.017,5.447h-8.062l-5.084,28.979h-6.609l5.157-28.979h-6.973
			l1.017-5.447h6.755l1.308-7.263c0.338-1.791,0.835-3.534,1.488-5.229c0.654-1.694,1.549-3.195,2.688-4.503
			c1.137-1.308,2.529-2.36,4.176-3.159c1.646-0.799,3.606-1.199,5.883-1.199c1.55,0,2.93,0.17,4.141,0.508L508.047,69.924z
			 M512.042,119.384h-6.683l6.028-34.426h6.755L512.042,119.384z M520.974,72.394c0,1.162-0.408,2.191-1.225,3.086
			c-0.816,0.896-1.824,1.344-3.023,1.344c-1.153,0-2.149-0.363-2.989-1.089c-0.84-0.727-1.26-1.743-1.26-3.051
			c0-1.259,0.443-2.324,1.332-3.195c0.888-0.872,1.908-1.308,3.061-1.308c1.104,0,2.063,0.388,2.88,1.162
			C520.566,70.118,520.974,71.135,520.974,72.394z"/>
	</g>
	<linearGradient id="SVGID_1_" gradientUnits="userSpaceOnUse" x1="11.5458" y1="67.643" x2="96.1232" y2="67.643">
		<stop  offset="0" style="stop-color:#FF9C00"/>
		<stop  offset="1" style="stop-color:#FFE226"/>
	</linearGradient>
	<path fill="url(#SVGID_1_)" d="M53.93,36.658H42.368v23.078H53.93c11.752,0.058,21.044,10.715,18.774,22.885
		c-1.425,7.644-7.574,13.782-15.219,15.198c-10.237,1.896-19.386-4.388-22.065-13.425c-0.513-1.729-0.799-3.556-0.799-5.449V41.291
		v-6.049c0-11.703-10.331-21.19-23.075-21.19v64.891c0,1.337,0.07,2.657,0.192,3.963c2.12,22.697,22.246,40.245,45.915,38.157
		c20.561-1.813,37.029-18.69,38.378-39.287C97.64,57.215,78.141,36.712,53.93,36.658z"/>
</g>
</svg>
